# xmcd
#
# Track frame offsets: 
#        150
#        15179
#        32645
#        48156
#        59971
#        74308
#        94944
#        113505
#        128508
#        142953
#
# Disc length: 2103 seconds
#
# Revision: 1
# Processed by: cddbd v1.5.2PL0 Copyright (c) Steve Scherf et al.
# Submitted via: ExactAudioCopyFreeDBPlugin 1.0
#
DISCID=7d08350a
DTITLE=Lilly Hiatt and the Dropped Ponies - Let Down
DYEAR=2012
DGENRE=Americana
TTITLE0=Championship Fighter
TTITLE1=Young Black Rose
TTITLE2=People Don't Change
TTITLE3=3 Days
TTITLE4=Oh Mister
TTITLE5=Let Down
TTITLE6=Angry Momma
TTITLE7=Master
TTITLE8=Knew You Were Coming
TTITLE9=Big Bad Wolf
EXTD=
EXTT0=
EXTT1=
EXTT2=
EXTT3=
EXTT4=
EXTT5=
EXTT6=
EXTT7=
EXTT8=
EXTT9=
PLAYORDER=
